<mxfile host="app.diagrams.net" modified="2020-10-19T15:40:21.549Z" agent="5.0 (Windows NT 10.0; Win64; x64) AppleWebKit/537.36 (KHTML, like Gecko) Chrome/86.0.4240.75 Safari/537.36" etag="szyL1QGLzRoGkynB3i2b" version="13.8.0" type="github">
  <diagram id="C5RBs43oDa-KdzZeNtuy" name="Page-1">
    <mxGraphModel dx="1038" dy="491" grid="1" gridSize="10" guides="1" tooltips="1" connect="1" arrows="1" fold="1" page="1" pageScale="1" pageWidth="827" pageHeight="1169" math="0" shadow="0">
      <root>
        <mxCell id="WIyWlLk6GJQsqaUBKTNV-0" />
        <mxCell id="WIyWlLk6GJQsqaUBKTNV-1" parent="WIyWlLk6GJQsqaUBKTNV-0" />
        <mxCell id="Q-OtX2578MXEFDejTrp2-0" value="Fish" style="swimlane;fontStyle=0;childLayout=stackLayout;horizontal=1;startSize=26;fillColor=none;horizontalStack=0;resizeParent=1;resizeParentMax=0;resizeLast=0;collapsible=1;marginBottom=0;" vertex="1" parent="WIyWlLk6GJQsqaUBKTNV-1">
          <mxGeometry x="370" y="200" width="140" height="148" as="geometry" />
        </mxCell>
        <mxCell id="Q-OtX2578MXEFDejTrp2-1" value="color:string" style="text;strokeColor=none;fillColor=none;align=left;verticalAlign=top;spacingLeft=4;spacingRight=4;overflow=hidden;rotatable=0;points=[[0,0.5],[1,0.5]];portConstraint=eastwest;" vertex="1" parent="Q-OtX2578MXEFDejTrp2-0">
          <mxGeometry y="26" width="140" height="26" as="geometry" />
        </mxCell>
        <mxCell id="Q-OtX2578MXEFDejTrp2-21" value="" style="line;strokeWidth=1;fillColor=none;align=left;verticalAlign=middle;spacingTop=-1;spacingLeft=3;spacingRight=3;rotatable=0;labelPosition=right;points=[];portConstraint=eastwest;" vertex="1" parent="Q-OtX2578MXEFDejTrp2-0">
          <mxGeometry y="52" width="140" height="8" as="geometry" />
        </mxCell>
        <mxCell id="Q-OtX2578MXEFDejTrp2-2" value="+ Swim()" style="text;strokeColor=none;fillColor=none;align=left;verticalAlign=top;spacingLeft=4;spacingRight=4;overflow=hidden;rotatable=0;points=[[0,0.5],[1,0.5]];portConstraint=eastwest;" vertex="1" parent="Q-OtX2578MXEFDejTrp2-0">
          <mxGeometry y="60" width="140" height="28" as="geometry" />
        </mxCell>
        <mxCell id="Q-OtX2578MXEFDejTrp2-3" value="+ SetColor(warna:string)&#xa;" style="text;strokeColor=none;fillColor=none;align=left;verticalAlign=top;spacingLeft=4;spacingRight=4;overflow=hidden;rotatable=0;points=[[0,0.5],[1,0.5]];portConstraint=eastwest;" vertex="1" parent="Q-OtX2578MXEFDejTrp2-0">
          <mxGeometry y="88" width="140" height="30" as="geometry" />
        </mxCell>
        <mxCell id="Q-OtX2578MXEFDejTrp2-4" value="+GetColor()" style="text;strokeColor=none;fillColor=none;align=left;verticalAlign=top;spacingLeft=4;spacingRight=4;overflow=hidden;rotatable=0;points=[[0,0.5],[1,0.5]];portConstraint=eastwest;" vertex="1" parent="Q-OtX2578MXEFDejTrp2-0">
          <mxGeometry y="118" width="140" height="30" as="geometry" />
        </mxCell>
        <mxCell id="Q-OtX2578MXEFDejTrp2-14" value="Shark" style="swimlane;fontStyle=0;childLayout=stackLayout;horizontal=1;startSize=26;fillColor=none;horizontalStack=0;resizeParent=1;resizeParentMax=0;resizeLast=0;collapsible=1;marginBottom=0;" vertex="1" parent="WIyWlLk6GJQsqaUBKTNV-1">
          <mxGeometry x="50" y="40" width="150" height="214" as="geometry" />
        </mxCell>
        <mxCell id="Q-OtX2578MXEFDejTrp2-15" value="SharpTeeth:int" style="text;strokeColor=none;fillColor=none;align=left;verticalAlign=top;spacingLeft=4;spacingRight=4;overflow=hidden;rotatable=0;points=[[0,0.5],[1,0.5]];portConstraint=eastwest;" vertex="1" parent="Q-OtX2578MXEFDejTrp2-14">
          <mxGeometry y="26" width="150" height="26" as="geometry" />
        </mxCell>
        <mxCell id="Q-OtX2578MXEFDejTrp2-22" value="" style="line;strokeWidth=1;fillColor=none;align=left;verticalAlign=middle;spacingTop=-1;spacingLeft=3;spacingRight=3;rotatable=0;labelPosition=right;points=[];portConstraint=eastwest;" vertex="1" parent="Q-OtX2578MXEFDejTrp2-14">
          <mxGeometry y="52" width="150" height="8" as="geometry" />
        </mxCell>
        <mxCell id="Q-OtX2578MXEFDejTrp2-16" value="+Eat()" style="text;strokeColor=none;fillColor=none;align=left;verticalAlign=top;spacingLeft=4;spacingRight=4;overflow=hidden;rotatable=0;points=[[0,0.5],[1,0.5]];portConstraint=eastwest;" vertex="1" parent="Q-OtX2578MXEFDejTrp2-14">
          <mxGeometry y="60" width="150" height="26" as="geometry" />
        </mxCell>
        <mxCell id="Q-OtX2578MXEFDejTrp2-17" value="+SetSharpTeeth(teeth:int)" style="text;strokeColor=none;fillColor=none;align=left;verticalAlign=top;spacingLeft=4;spacingRight=4;overflow=hidden;rotatable=0;points=[[0,0.5],[1,0.5]];portConstraint=eastwest;" vertex="1" parent="Q-OtX2578MXEFDejTrp2-14">
          <mxGeometry y="86" width="150" height="32" as="geometry" />
        </mxCell>
        <mxCell id="Q-OtX2578MXEFDejTrp2-18" value="+Swim()" style="text;strokeColor=none;fillColor=none;align=left;verticalAlign=top;spacingLeft=4;spacingRight=4;overflow=hidden;rotatable=0;points=[[0,0.5],[1,0.5]];portConstraint=eastwest;" vertex="1" parent="Q-OtX2578MXEFDejTrp2-14">
          <mxGeometry y="118" width="150" height="32" as="geometry" />
        </mxCell>
        <mxCell id="Q-OtX2578MXEFDejTrp2-19" value="+Swim(fin:int)" style="text;strokeColor=none;fillColor=none;align=left;verticalAlign=top;spacingLeft=4;spacingRight=4;overflow=hidden;rotatable=0;points=[[0,0.5],[1,0.5]];portConstraint=eastwest;" vertex="1" parent="Q-OtX2578MXEFDejTrp2-14">
          <mxGeometry y="150" width="150" height="32" as="geometry" />
        </mxCell>
        <mxCell id="Q-OtX2578MXEFDejTrp2-20" value="+Swim(eye:int, tail:int)" style="text;strokeColor=none;fillColor=none;align=left;verticalAlign=top;spacingLeft=4;spacingRight=4;overflow=hidden;rotatable=0;points=[[0,0.5],[1,0.5]];portConstraint=eastwest;" vertex="1" parent="Q-OtX2578MXEFDejTrp2-14">
          <mxGeometry y="182" width="150" height="32" as="geometry" />
        </mxCell>
        <mxCell id="Q-OtX2578MXEFDejTrp2-25" value="" style="html=1;verticalAlign=bottom;endArrow=block;entryX=-0.023;entryY=1.085;entryDx=0;entryDy=0;entryPerimeter=0;exitX=1.013;exitY=-0.094;exitDx=0;exitDy=0;exitPerimeter=0;" edge="1" parent="WIyWlLk6GJQsqaUBKTNV-1" source="Q-OtX2578MXEFDejTrp2-18" target="Q-OtX2578MXEFDejTrp2-1">
          <mxGeometry width="80" relative="1" as="geometry">
            <mxPoint x="220" y="210" as="sourcePoint" />
            <mxPoint x="300" y="210" as="targetPoint" />
          </mxGeometry>
        </mxCell>
        <mxCell id="Q-OtX2578MXEFDejTrp2-28" value="hunt" style="edgeLabel;html=1;align=center;verticalAlign=middle;resizable=0;points=[];" vertex="1" connectable="0" parent="Q-OtX2578MXEFDejTrp2-25">
          <mxGeometry x="-0.1698" y="-1" relative="1" as="geometry">
            <mxPoint as="offset" />
          </mxGeometry>
        </mxCell>
        <mxCell id="Q-OtX2578MXEFDejTrp2-10" value="Aquirium" style="swimlane;fontStyle=0;childLayout=stackLayout;horizontal=1;startSize=26;fillColor=none;horizontalStack=0;resizeParent=1;resizeParentMax=0;resizeLast=0;collapsible=1;marginBottom=0;" vertex="1" parent="WIyWlLk6GJQsqaUBKTNV-1">
          <mxGeometry x="640" y="130" width="140" height="52" as="geometry" />
        </mxCell>
        <mxCell id="Q-OtX2578MXEFDejTrp2-11" value="+fillFish()" style="text;strokeColor=none;fillColor=none;align=left;verticalAlign=top;spacingLeft=4;spacingRight=4;overflow=hidden;rotatable=0;points=[[0,0.5],[1,0.5]];portConstraint=eastwest;" vertex="1" parent="Q-OtX2578MXEFDejTrp2-10">
          <mxGeometry y="26" width="140" height="26" as="geometry" />
        </mxCell>
        <mxCell id="Q-OtX2578MXEFDejTrp2-27" value="swim" style="html=1;verticalAlign=bottom;endArrow=block;entryX=0.089;entryY=1.077;entryDx=0;entryDy=0;entryPerimeter=0;exitX=1;exitY=0.5;exitDx=0;exitDy=0;" edge="1" parent="WIyWlLk6GJQsqaUBKTNV-1" source="Q-OtX2578MXEFDejTrp2-2" target="Q-OtX2578MXEFDejTrp2-11">
          <mxGeometry x="-0.0187" width="80" relative="1" as="geometry">
            <mxPoint x="540" y="260" as="sourcePoint" />
            <mxPoint x="620" y="260" as="targetPoint" />
            <Array as="points" />
            <mxPoint as="offset" />
          </mxGeometry>
        </mxCell>
      </root>
    </mxGraphModel>
  </diagram>
</mxfile>
